<mxfile host="app.diagrams.net" modified="2023-10-04T03:39:51.873Z" agent="Mozilla/5.0 (Windows NT 10.0; Win64; x64) AppleWebKit/537.36 (KHTML, like Gecko) Chrome/117.0.0.0 Safari/537.36" version="21.7.5" etag="BsgKLiCSCWrWrFR2SPT7" type="github">
  <diagram name="Page-1" id="hQolHMk7WplZnjBgOWsM">
    <mxGraphModel>
      <root>
        <mxCell id="0" />
        <mxCell id="1" parent="0" />
      </root>
    </mxGraphModel>
  </diagram>
</mxfile>
